<svg width="941" height="850" viewBox="0 0 941 850" fill="none" xmlns="http://www.w3.org/2000/svg" xmlns:xlink="http://www.w3.org/1999/xlink">
<path d="M544 293C389.6 305.8 344 437.667 339.5 502C329.9 682.4 457.167 809.167 523 850H941V34C941 34 912.5 58.5 908 103C871 296 872.5 325 805.5 334.5C738.5 344 654 283.881 544 293Z" fill="#F0F1F3"/>
<g filter="url(#filter0_d_6_23)">
<rect width="286" height="279" transform="matrix(-1 0 0 1 906 535)" fill="url(#pattern0)"/>
</g>
<rect x="443" width="498" height="450" fill="url(#pattern1)"/>
<rect width="746" height="820" fill="url(#pattern2)"/>
<defs>
<filter id="filter0_d_6_23" x="580" y="505" width="386" height="379" filterUnits="userSpaceOnUse" color-interpolation-filters="sRGB">
<feFlood flood-opacity="0" result="BackgroundImageFix"/>
<feColorMatrix in="SourceAlpha" type="matrix" values="0 0 0 0 0 0 0 0 0 0 0 0 0 0 0 0 0 0 127 0" result="hardAlpha"/>
<feOffset dx="10" dy="20"/>
<feGaussianBlur stdDeviation="25"/>
<feColorMatrix type="matrix" values="0 0 0 0 0 0 0 0 0 0 0 0 0 0 0 0 0 0 0.3 0"/>
<feBlend mode="normal" in2="BackgroundImageFix" result="effect1_dropShadow_6_23"/>
<feBlend mode="normal" in="SourceGraphic" in2="effect1_dropShadow_6_23" result="shape"/>
</filter>
<pattern id="pattern0" patternContentUnits="objectBoundingBox" width="1" height="1">
<use xlink:href="#image0_6_23" transform="scale(0.000373692 0.000383068)"/>
</pattern>
<pattern id="pattern1" patternContentUnits="objectBoundingBox" width="1" height="1">
<use xlink:href="#image1_6_23" transform="translate(-0.00130077 -0.226667) scale(0.00136507 0.00151067)"/>
</pattern>
<pattern id="pattern2" patternContentUnits="objectBoundingBox" width="1" height="1">
<use xlink:href="#image2_6_23" transform="translate(0 -0.0328206) scale(0.000968054 0.000880693)"/>
</pattern>
</defs>
</svg>
