<svg width="768" height="563" viewBox="0 0 768 563" fill="none" xmlns="http://www.w3.org/2000/svg" xmlns:xlink="http://www.w3.org/1999/xlink">
<path d="M435.322 238.052C293.493 249.816 251.606 371.017 247.472 430.147C238.654 595.956 355.559 712.469 416.032 750H800V0C800 0 773.82 22.5184 769.687 63.4191C735.699 240.809 737.077 267.463 675.532 276.195C613.987 284.927 536.367 229.67 435.322 238.052Z" fill="#F0F1F3"/>
<rect x="602" y="32" width="531" height="602" transform="rotate(90 602 32)" fill="url(#pattern0)"/>
<g filter="url(#filter0_d_7_36)">
<rect width="208" height="203" transform="matrix(-1 0 0 1 672 122)" fill="url(#pattern1)"/>
</g>
<rect x="277" y="132" width="740" height="527" fill="url(#pattern2)"/>
<defs>
<pattern id="pattern0" patternContentUnits="objectBoundingBox" width="1" height="1">
<use xlink:href="#image0_7_36" transform="translate(0 -0.00122856) scale(0.000968054 0.000853882)"/>
</pattern>
<filter id="filter0_d_7_36" x="424" y="92" width="308" height="303" filterUnits="userSpaceOnUse" color-interpolation-filters="sRGB">
<feFlood flood-opacity="0" result="BackgroundImageFix"/>
<feColorMatrix in="SourceAlpha" type="matrix" values="0 0 0 0 0 0 0 0 0 0 0 0 0 0 0 0 0 0 127 0" result="hardAlpha"/>
<feOffset dx="10" dy="20"/>
<feGaussianBlur stdDeviation="25"/>
<feColorMatrix type="matrix" values="0 0 0 0 0 0 0 0 0 0 0 0 0 0 0 0 0 0 0.3 0"/>
<feBlend mode="normal" in2="BackgroundImageFix" result="effect1_dropShadow_7_36"/>
<feBlend mode="normal" in="SourceGraphic" in2="effect1_dropShadow_7_36" result="shape"/>
</filter>
<pattern id="pattern1" patternContentUnits="objectBoundingBox" width="1" height="1">
<use xlink:href="#image1_7_36" transform="translate(-0.000320513) scale(0.000373932 0.000383142)"/>
</pattern>
<pattern id="pattern2" patternContentUnits="objectBoundingBox" width="1" height="1">
<use xlink:href="#image2_7_36" transform="translate(0 -0.00052228) scale(0.000877963 0.00123281)"/>
</pattern>
</defs>
</svg>
